<!DOCTYPE svg PUBLIC "-//W3C//DTD SVG 1.1//EN" "http://www.w3.org/Graphics/SVG/1.1/DTD/svg11.dtd">
<!-- Uploaded to: SVG Repo, www.svgrepo.com, Transformed by: SVG Repo Mixer Tools -->
<svg fill="#00ff00" height="800px" width="800px" version="1.1" id="Capa_1" xmlns="http://www.w3.org/2000/svg" xmlns:xlink="http://www.w3.org/1999/xlink" viewBox="-4.89 -4.89 498.78 498.78" xml:space="preserve" transform="rotate(0)matrix(1, 0, 0, 1, 0, 0)" stroke="#00ff00" stroke-width="3.912008">
<g id="SVGRepo_bgCarrier" stroke-width="0"/>
<g id="SVGRepo_tracerCarrier" stroke-linecap="round" stroke-linejoin="round" stroke="#CCCCCC" stroke-width="0.978002"/>
<g id="SVGRepo_iconCarrier"> <g> <g> <path d="M2.2,168.151l-2.1-151.3c-0.1-7.7,6.2-14,13.9-13.9l151.3,2.2c12.1,0.2,18.1,14.8,9.5,23.4l-42.1,42.1l70,70l-65,65 l-70-70l-42.1,42.1C17.1,186.251,2.4,180.251,2.2,168.151z"/> <path d="M421.3,136.551l42.1,42.1c8.6,8.6,23.2,2.6,23.4-9.5l2.2-151.3c0.1-7.7-6.2-14-13.9-13.9l-151.3,2.2 c-12.1,0.2-18.1,14.8-9.5,23.4l42,41.9l-70,70l65,65L421.3,136.551z"/> <path d="M314.2,460.451c-8.6,8.6-2.6,23.2,9.5,23.4l151.3,2.2c7.7,0.1,14-6.2,13.9-13.9l-2.2-151.3c-0.2-12.1-14.8-18.1-23.4-9.5 l-42.1,42.1l-70-70l-65,65l70,70L314.2,460.451z"/> <path d="M14,485.051l151.3-2.2c12.1-0.2,18.1-14.8,9.5-23.4l-42.1-42l70-70l-65-65l-70,70l-42.1-42.1c-8.6-8.6-23.2-2.6-23.4,9.5 L0,471.151C0,478.851,6.3,485.151,14,485.051z"/> </g> </g> </g>
</svg>